# xmcd
#
# Track frame offsets:
#	180
#	19425
#	42253
#	59247
#	71206
#	83109
#	106858
#	121889
#	135055
#	156111
#	178955
#	192277
#	222845
#	235880
#	249406
#	273323
#	284205
#	307809
#
# Disc length: 4361
#
# Revision: 3
# Processed by: cddbd v1.5.1PL0 Copyright (c) Steve Scherf et al.
# Submitted via: CDex 1.40PlusFr
# Normalized: r2:DSETVAR1,TDELIM( - )
#
DISCID=0b110712
DTITLE=Various Artist - Blues Kings - Du Mississippi à la Californie
DYEAR=1995
DGENRE=Blues
TTITLE0=Little Milton - The Blue Is Alright
TTITLE1=BB King - The Thrill Is Gone
TTITLE2=Buddy Guy - Buddy's Blues
TTITLE3=Tampa Red - It's Tight Like That
TTITLE4=Big Joe Turner - Blues On Central Avenue
TTITLE5=Lightnin' Hopkins - Early Morning Blues
TTITLE6=Robert Cray - Sleeping In The Ground
TTITLE7=T. Bone Walker - Mean Old World
TTITLE8=Denise La Salle - Your Husband Is Cheatin' On Us
TTITLE9=Johnnie Taylor - Change Your Habits
TTITLE10=Muddy Waters - Mannish Boy
TTITLE11=Bobby 'Blue' Bland - I'm A Blues Man
TTITLE12=Bukka White - Parchman Farm Blues
TTITLE13=Sony Boy Williamson - Good Morning Little School Girl
TTITLE14=Percy Mayfield - Cried Last Night - Baby, Please
TTITLE15=Magic Sam - Out Of Bad Luck
TTITLE16=ZZ Hill - Down Home Blues
TTITLE17=Albert King - I'll Play Blues For You
EXTD=YEAR: 1995 ID3G: 0
EXTT0=
EXTT1=
EXTT2=
EXTT3=
EXTT4=
EXTT5=
EXTT6=
EXTT7=
EXTT8=
EXTT9=
EXTT10=
EXTT11=
EXTT12=
EXTT13=
EXTT14=
EXTT15=
EXTT16=
EXTT17=
PLAYORDER=
